<svg xmlns="http://www.w3.org/2000/svg" viewBox="0 0 126 26" width="126" height="26">
	<style>
		tspan { white-space:pre }
		.shp0 { fill: #ffffff } 
	</style>
	<path id="a" fill-rule="evenodd" class="shp0" d="M4.74 19.34L4.74 19.93C4.74 22.12 4.74 24.6 4.74 25.18C4.74 25.72 4.48 25.98 3.95 25.98C2.9 25.99 1.83 25.99 0.78 25.98C0.24 25.98 0 25.73 0 25.18L0 0.77C0 0.25 0.23 0.02 0.76 0.02C1.67 0.02 2.58 0.01 3.48 0.01L3.49 0.01C5.65 0 7.81 -0.01 9.98 0.03C14.4 0.13 17.68 3.38 17.88 7.75C17.98 10.08 17.54 12.25 16.01 14.09C14.46 15.96 12.41 16.86 10 16.96C8.67 17.01 5.97 16.98 5.04 16.97L4.74 16.97L4.74 19.34ZM4.76 13.09L6.21 13.09C7.16 13.08 8.1 13.08 9.04 13.09C10.24 13.1 11.22 12.64 11.96 11.73C13.11 10.32 13.41 8.7 12.95 6.96C12.42 4.99 10.91 3.89 8.86 3.89L4.77 3.89C4.76 6.97 4.76 10 4.76 13.09ZM34.04 25.13L33.6 24.09L33.58 24.03L33.55 23.96L33.54 23.94C33.18 23.09 32.82 22.24 32.48 21.39C32.35 21.06 32.17 20.97 31.83 20.97L31.52 20.97C28.3 20.98 25.09 20.99 21.87 20.97C21.49 20.97 21.33 21.11 21.2 21.43C20.84 22.33 20.46 23.22 20.08 24.11L19.94 24.46L19.67 25.08C19.37 25.82 19.11 25.99 18.3 25.99L15.6 25.99C14.79 25.99 14.5 25.56 14.84 24.83C15.32 23.78 17.42 19.25 19.74 14.23L20.07 13.51L20.09 13.48L20.31 13.01C20.78 11.98 21.25 10.96 21.73 9.93C22.2 8.91 22.68 7.88 23.15 6.86C23.62 5.83 24.1 4.81 24.57 3.78C25.05 2.76 25.52 1.73 25.99 0.71C26.17 0.33 26.38 0.07 26.84 0.06C27.32 0.05 27.6 0.22 27.81 0.67C31.48 8.71 35.16 16.75 38.85 24.79C39.21 25.58 38.93 25.99 38.06 25.99C37.59 25.98 35.78 25.96 35.36 25.99C34.67 26.05 34.29 25.72 34.04 25.13L34.04 25.13ZM30.49 17.06C30.18 16.39 29.87 15.72 29.57 15.05C29.26 14.39 28.95 13.72 28.65 13.05C28.34 12.38 28.03 11.71 27.73 11.04C27.42 10.37 27.12 9.7 26.81 9.04C26.51 9.7 26.21 10.37 25.91 11.04C25.61 11.71 25.31 12.38 25.01 13.04C24.71 13.71 24.41 14.38 24.11 15.05C23.81 15.72 23.51 16.39 23.21 17.06L30.49 17.06ZM52.56 0.61C52.83 0.21 53.14 0.04 53.63 0.05C54.38 0.07 55.13 0.07 55.88 0.06L56.29 0.06L56.79 0.06C57.14 0.06 57.49 0.06 57.68 0.43C57.86 0.79 57.69 1.07 57.49 1.37C56.83 2.34 56.17 3.31 55.5 4.28C54.84 5.25 54.18 6.22 53.52 7.19C52.86 8.15 52.19 9.12 51.53 10.09C50.87 11.06 50.2 12.03 49.54 13C49.48 13.08 49.43 13.16 49.39 13.25C49.35 13.34 49.31 13.43 49.28 13.52C49.25 13.62 49.23 13.71 49.22 13.81C49.21 13.91 49.2 14 49.2 14.1C49.21 17.74 49.22 21.38 49.21 25.01C49.21 25.77 49 25.98 48.22 25.98L45.38 25.98C44.69 25.98 44.47 25.75 44.47 25.07C44.47 21.36 44.46 17.65 44.46 13.93C44.45 13.66 44.37 13.4 44.22 13.17C43.3 11.79 42.02 9.88 40.75 7.99L40.74 7.98C38.43 4.54 36.16 1.15 36.12 1.05C35.91 0.58 36.17 0.09 36.69 0.08C37 0.07 37.32 0.07 37.64 0.06C37.96 0.06 38.28 0.06 38.59 0.06C38.91 0.06 39.23 0.06 39.55 0.07C39.87 0.08 40.18 0.09 40.5 0.1C40.73 0.11 41.01 0.38 41.16 0.59C41.5 1.08 41.84 1.57 42.19 2.07C42.53 2.56 42.87 3.05 43.21 3.55C43.55 4.04 43.89 4.54 44.23 5.03C44.57 5.52 44.91 6.02 45.24 6.51C46.15 7.83 46.83 8.82 46.89 8.9C47.36 8.21 47.84 7.52 48.31 6.83C48.78 6.14 49.26 5.45 49.73 4.76C50.2 4.07 50.67 3.38 51.14 2.69C51.61 2 52.08 1.31 52.55 0.61L52.56 0.61ZM121.77 25.97C119.44 25.96 117.57 24.09 117.57 21.79C117.57 21.24 117.69 20.7 117.9 20.2C118.12 19.69 118.43 19.23 118.82 18.85C119.21 18.46 119.68 18.16 120.18 17.95C120.69 17.74 121.24 17.64 121.78 17.64C122.06 17.64 122.34 17.66 122.61 17.72C122.88 17.77 123.14 17.85 123.4 17.95C123.66 18.06 123.9 18.19 124.13 18.34C124.36 18.49 124.58 18.67 124.77 18.86C124.97 19.06 125.14 19.27 125.3 19.5C125.45 19.73 125.58 19.97 125.69 20.22C125.79 20.48 125.87 20.74 125.92 21.01C125.98 21.28 126 21.56 126 21.83C125.98 24.13 124.09 25.98 121.77 25.97ZM125.49 21.87C125.54 19.89 123.89 18.19 121.89 18.16C119.82 18.12 118.13 19.71 118.09 21.71C118.08 21.95 118.1 22.19 118.14 22.43C118.18 22.67 118.25 22.91 118.34 23.13C118.42 23.36 118.53 23.57 118.66 23.78C118.8 23.98 118.95 24.17 119.12 24.34C119.28 24.52 119.47 24.68 119.67 24.82C119.87 24.95 120.09 25.07 120.31 25.17C120.53 25.26 120.76 25.34 121 25.39C121.24 25.44 121.48 25.47 121.73 25.47C123.77 25.51 125.42 23.91 125.49 21.87ZM122.87 22.73C123.11 23.07 123.35 23.4 123.58 23.74C123.16 23.9 122.93 23.77 122.76 23.45C122.74 23.42 122.73 23.39 122.71 23.36C122.69 23.33 122.68 23.3 122.66 23.28C122.64 23.25 122.62 23.22 122.6 23.19C122.58 23.16 122.56 23.14 122.54 23.11C122.48 23.02 122.42 22.93 122.36 22.83C122.04 22.28 121.57 22.1 120.9 22.26L120.9 23.77C120.86 23.78 120.82 23.78 120.78 23.78C120.74 23.78 120.7 23.79 120.67 23.79C120.63 23.79 120.59 23.8 120.55 23.8C120.51 23.8 120.47 23.81 120.43 23.81L120.43 20.25C120.63 20.25 120.83 20.24 121.03 20.24C121.15 20.24 121.26 20.24 121.37 20.24C121.49 20.23 121.6 20.23 121.72 20.24C121.83 20.24 121.94 20.24 122.06 20.24C122.17 20.25 122.28 20.25 122.4 20.25C122.94 20.28 123.23 20.61 123.29 21.08C123.35 21.55 123.12 21.91 122.61 22.11C122.6 22.11 122.59 22.12 122.58 22.12C122.57 22.13 122.56 22.13 122.54 22.14C122.53 22.14 122.52 22.15 122.51 22.15C122.5 22.16 122.48 22.16 122.47 22.16L122.87 22.73ZM121.32 21.77C121.65 21.77 121.97 21.78 122.29 21.76C122.61 21.74 122.8 21.53 122.81 21.21C122.82 20.87 122.59 20.67 122.26 20.64C121.95 20.62 121.63 20.63 121.31 20.63C121.18 20.63 121.04 20.63 120.91 20.63L120.91 21.77C120.94 21.77 120.98 21.77 121.01 21.77C121.05 21.77 121.08 21.77 121.12 21.77C121.15 21.77 121.19 21.77 121.22 21.77C121.25 21.77 121.29 21.77 121.32 21.77Z" />
	<path id="b" fill-rule="evenodd" class="shp0" d="M110.97 16.3C112.46 19.08 113.95 21.86 115.44 24.65C115.54 24.79 115.61 24.95 115.66 25.11C115.77 25.53 115.52 25.9 115.08 25.91C113.78 25.93 112.47 25.92 111.17 25.92C110.78 25.92 110.66 25.63 110.53 25.35C109.07 22.37 107.59 19.38 106.15 16.39C105.97 16.02 105.77 15.86 105.34 15.87C105.09 15.88 104.85 15.88 104.6 15.89C104.35 15.89 104.1 15.89 103.85 15.89C103.6 15.89 103.36 15.89 103.11 15.89C102.86 15.88 102.61 15.88 102.36 15.87C101.95 15.86 101.83 16 101.83 16.41C101.84 19.24 101.84 22.07 101.84 24.91C101.84 25.79 101.71 25.92 100.83 25.92L98.13 25.92C97.41 25.92 97.22 25.74 97.22 25.03L97.22 0.87C97.22 0.23 97.43 0.01 98.07 0.01C101.47 0.01 104.87 -0.01 108.27 0.01C112.06 0.03 115.16 2.5 115.83 6.13C116.55 9.99 114.94 13.55 111.16 15.35C111.11 15.37 111.07 15.39 111.02 15.41C110.98 15.44 110.93 15.46 110.89 15.48C110.84 15.5 110.8 15.52 110.75 15.54C110.71 15.57 110.66 15.59 110.62 15.61C110.75 15.86 110.86 16.08 110.97 16.3ZM107.72 12.11C107.9 12.11 108.07 12.1 108.23 12.07C108.4 12.05 108.57 12.01 108.73 11.95C108.89 11.9 109.05 11.83 109.2 11.75C109.35 11.67 109.49 11.58 109.63 11.47C111.02 10.44 111.67 8.46 111.19 6.72C110.68 4.86 109.32 3.83 107.39 3.83L101.92 3.83L101.92 12.11C102.12 12.11 105.96 12.1 107.72 12.11ZM64.7 11.09L73.4 11.09C74.13 11.09 74.35 11.31 74.35 12.02L74.35 14.05C74.35 14.69 74.12 14.91 73.48 14.91L64.71 14.91L64.71 22.18L75.15 22.18C75.95 22.18 76.12 22.36 76.12 23.15L76.12 25.09C76.12 25.78 75.91 26 75.21 26C70.81 26 61.18 26.01 60.78 26C60.32 25.99 60.09 25.81 60.02 25.43C60.01 25.37 60 9.04 60 1.09C60 0.17 60.16 0.02 61.07 0.02L75.07 0.02C75.96 0.02 76.12 0.18 76.12 1.07L76.12 2.92C76.12 3.64 75.92 3.83 75.17 3.83C71.89 3.82 64.94 3.82 64.7 3.82L64.7 11.09ZM78.7 0.93C78.7 0.17 78.87 0 79.62 0L93.87 0C94.59 0 94.78 0.19 94.78 0.89L94.78 2.97C94.78 3.62 94.59 3.82 93.92 3.82L84.01 3.82C83.33 3.82 83.33 3.82 83.33 4.48C83.33 6.51 83.34 8.55 83.32 10.58C83.32 10.99 83.44 11.1 83.85 11.1C86.53 11.08 89.22 11.09 91.9 11.09C92.88 11.09 93.01 11.22 93.01 12.16L93.01 14.1C93.01 14.68 92.8 14.9 92.19 14.9C90.78 14.91 85.2 14.91 83.81 14.9C83.47 14.9 83.32 14.97 83.32 15.36C83.34 17.48 83.34 19.61 83.32 21.73C83.32 22.11 83.46 22.18 83.81 22.18C87.14 22.17 90.45 22.17 93.77 22.17C94.65 22.17 94.78 22.3 94.78 23.19L94.78 25.13C94.78 25.78 94.58 25.99 93.93 25.99L79.69 25.99C78.86 25.99 78.71 25.84 78.71 25.03C78.7 21.02 78.7 17 78.7 12.98L78.7 0.93Z" />
</svg>