<svg xmlns="http://www.w3.org/2000/svg" viewBox="0 0 566 120" width="566" height="120">
	<style>
		tspan { white-space:pre }
		.shp0 { fill: #ffffff } 
	</style>
	<g id="Group-26">
		<g id="Group-10">
			<path id="Fill-8" fill-rule="evenodd" class="shp0" d="M261.23 107.59C253.65 99.26 249.77 89.23 249.77 77.33C249.77 65.6 253.65 55.57 261.23 47.24C268.81 38.91 278.65 34.83 290.42 34.83C298.97 34.83 306.71 36.87 313.65 41.12L313.65 48.6C306.39 44.18 298.97 41.97 291.23 41.97C281.55 41.97 273.48 45.37 266.87 52.17C260.42 58.97 257.19 67.47 257.19 77.5C257.19 87.53 260.42 96.03 266.87 102.83C273.48 109.46 281.55 112.86 291.23 112.86C300.26 112.86 308.16 110.31 315.1 105.21L315.1 112.86C308.33 117.62 300.1 120 290.26 120C278.49 120 268.81 115.92 261.23 107.59Z" />
		</g>
		<g id="Group-13">
			<path id="Fill-11" fill-rule="evenodd" class="shp0" d="M503.23 117.96L495.97 117.96L495.97 0L503.23 0L503.23 50.98C510.16 42.14 522.26 34.83 535.97 34.83C555.49 34.83 565.81 47.07 565.81 68.66L565.81 117.96L558.55 117.96L558.55 70.19C558.55 58.63 555.17 50.47 549.84 46.9C544.68 43.33 539.84 41.97 533.87 41.97C527.9 41.97 522.1 43.84 516.29 47.75C510.49 51.49 506.13 55.91 503.23 60.84L503.23 117.96L503.23 117.96Z" />
		</g>
		<path id="Fill-14" fill-rule="evenodd" class="shp0" d="M0 117.96L32.98 36.41L48.14 36.41L81.12 117.96L64.3 117.96L56.72 99.19L24.18 99.19L16.6 117.96L0 117.96ZM29.13 85.41L51.66 85.41L40.45 57.26L29.13 85.41Z" />
		<path id="Fill-16" fill-rule="evenodd" class="shp0" d="M91.61 36.87L120.41 36.87C132.83 36.87 143.05 40.7 150.85 48.23C158.66 55.76 162.61 65.48 162.61 77.41C162.61 89.35 158.66 99.19 150.85 106.72C143.05 114.25 132.83 117.96 120.41 117.96L91.61 117.96L91.61 36.87ZM107.44 103.02L119.09 103.02C136.23 103.02 146.35 93.52 146.35 77.41C146.35 61.31 136.23 51.81 119.09 51.81L107.44 51.81L107.44 103.02Z" />
		<path id="Fill-18" class="shp0" d="M197.71 118.42L165.39 36.88L182.87 36.88L205.29 95.25L227.83 36.88L244.98 36.88L212.66 118.42L197.71 118.42Z" />
		<g id="Group-22">
			<path id="Fill-20" fill-rule="evenodd" class="shp0" d="M364.48 34.83C384.49 34.83 397.88 44.69 397.88 64.41L397.88 117.96L391.26 117.96L391.26 104.53C382.87 114.9 371.91 120 358.2 120C350.13 120 343.2 117.62 337.23 113.03C331.42 108.27 328.52 101.81 328.52 93.48C328.52 85.49 331.58 79.03 337.55 74.27C343.68 69.34 351.26 66.96 360.46 66.96C371.26 66.96 381.42 69.85 390.62 75.8L390.62 65.09C390.62 49.45 380.62 41.97 363.2 41.97C354 41.97 345.29 44.86 337.07 50.64L337.07 42.82C344.81 37.55 354 34.83 364.48 34.83ZM390.62 96.71L390.62 83.28C381.42 76.99 372.07 73.76 362.39 73.76C346.1 73.76 336.1 81.58 336.1 93.31C336.1 106.4 346.74 112.86 360.29 112.86C373.2 112.86 384.33 105.55 390.62 96.71Z" />
		</g>
		<g id="Group-25">
			<path id="Fill-23" fill-rule="evenodd" class="shp0" d="M414.44 111.33L414.44 103C423.64 109.63 434.28 112.86 446.06 112.86C461.06 112.86 470.74 106.57 470.74 96.88C470.74 75.16 416.86 85.6 416.86 56.76C416.86 43.33 427.67 34.83 446.54 34.83C457.83 34.83 467.03 37.38 474.29 42.32L474.29 50.13C465.74 44.69 456.7 41.97 447.03 41.97C432.03 41.97 424.28 47.92 424.28 56.76C424.28 79.64 478.16 66.48 478.16 97.05C478.16 104.02 475.09 109.63 468.96 113.88C462.99 117.96 455.41 120 446.22 120C433.32 120 420.73 116.09 414.44 111.33Z" />
		</g>
	</g>
</svg>