<svg xmlns="http://www.w3.org/2000/svg" viewBox="0 0 370 120" width="370" height="120">
	<style>
		tspan { white-space:pre }
		.shp0 { fill: #ffffff } 
	</style>
	<g id="g4158">
		<path id="polygon9" class="shp0" d="M160.38 117.93L130.53 117.93L149.2 2.48L179.05 2.48L160.38 117.93Z" />
		<path id="path11" class="shp0" d="M268.59 5.3C262.7 2.96 253.37 0.38 241.82 0.38C212.34 0.38 191.58 16.1 191.45 38.58C191.21 55.16 206.32 64.37 217.61 69.9C229.16 75.55 233.09 79.24 233.09 84.27C232.97 92.01 223.76 95.57 215.16 95.57C203.24 95.57 196.86 93.73 187.15 89.43L183.22 87.59L179.05 113.5C186.05 116.69 198.95 119.52 212.34 119.65C243.66 119.65 264.05 104.17 264.29 80.22C264.41 67.08 256.44 57.01 239.24 48.78C228.8 43.5 222.4 39.93 222.4 34.53C222.52 29.61 227.81 24.58 239.6 24.58C249.3 24.34 256.43 26.67 261.83 29L264.53 30.23L268.59 5.3L268.59 5.3Z" />
		<path id="path13" fill-rule="evenodd" class="shp0" d="M345.12 2.48L369.2 117.92L341.56 117.92C341.56 117.92 338.85 104.66 338 100.61C333.58 100.61 303.11 100.61 299.67 100.61C298.56 103.67 293.4 117.92 293.4 117.92L262.08 117.92L306.42 12.06C309.5 4.56 314.9 2.48 322.03 2.48L345.12 2.48ZM308.27 77.03C314.16 77.03 328.41 77.03 333.08 77.03C331.85 71.25 326.2 43.62 326.2 43.62L324.11 33.67C322.64 37.97 320.06 44.97 320.19 44.72C320.19 44.72 310.73 70.39 308.27 77.03Z" />
		<path id="path15" class="shp0" d="M105.59 2.48L76.36 81.2L73.16 65.24C67.76 46.81 50.81 26.8 31.89 16.84L58.67 117.8L90.24 117.8L137.16 2.48L105.59 2.48L105.59 2.48L105.59 2.48Z" />
		<path id="path17" class="shp0" d="M49.21 2.48L1.18 2.48L0.69 4.81C38.16 14.39 62.97 37.48 73.16 65.24L62.72 12.18C61.01 4.81 55.72 2.72 49.21 2.48L49.21 2.48Z" />
	</g>
</svg>